<?xml version="1.0" encoding="iso-8859-1"?>
<!-- Generator: Adobe Illustrator 19.0.0, SVG Export Plug-In . SVG Version: 6.00 Build 0)  -->
<svg version="1.1" id="Capa_1" xmlns="http://www.w3.org/2000/svg" xmlns:xlink="http://www.w3.org/1999/xlink" x="0px" y="0px"
	 viewBox="0 0 441.2 441.2" style="enable-background:new 0 0 441.2 441.2;" xml:space="preserve">
<g>
	<g>
		<g>
			<path d="M97.6,84.8v-4.4c0-3.6-2.8-6.4-6.4-6.4c-3.6,0-6.4,2.8-6.4,6.4v4h-4.4v-4c0-3.6-2.8-6.4-6.4-6.4c-3.6,0-6.4,2.8-6.4,6.4
				v4h-6c-3.6,0-6.4,2.8-6.4,6.4c0,3.6,2.8,6.4,6.4,6.4h6v17.6c-2.8,0.8-4.8,2.8-4.8,6c0,2.8,2,5.2,4.8,6v17.6h-6
				c-3.6,0-6.4,2.8-6.4,6.4c0,3.6,2.8,6.4,6.4,6.4h6v4c0,3.6,2.8,6.4,6.4,6.4c3.6,0,6.4-2.8,6.4-6.4v-4h4.4v3.2
				c0,3.6,2.8,6.4,6.4,6.4c3.6,0,6.4-2.8,6.4-6.4V156c10.4-1.6,18-10,18-20.8c0-5.6-2.4-11.2-6-14.8c3.6-4,6-9.2,6-14.8
				C115.6,94.8,107.6,86.4,97.6,84.8z M94.4,144.4h-14v-17.6h14c4.8,0,8.8,4,8.8,8.8C103.2,140.4,99.2,144.4,94.4,144.4z
				 M94.4,114.8h-14V97.6h14v-0.4c4.8,0,8.8,4,8.8,8.8C103.2,110.8,99.2,114.8,94.4,114.8z"/>
			<path d="M434.4,114.4H164.8C161.6,71.6,126,38,82.4,38C37.2,38,0,74.8,0,120.4c0,43.6,33.6,79.2,76.4,82.4v140.8
				c0,3.6,2.8,6.4,6.4,6.4h126l-36,42.8c-1.6,2-2,4.4-0.8,6.8c1.2,2,3.2,3.6,5.6,3.6H348c2.4,0,4.8-1.6,5.6-3.6
				c1.2-2.4,0.8-4.8-0.8-6.8L316.4,350h118.4c3.6,0,6.4-2.8,6.4-6.4V120.4C440.8,117.2,438,114.4,434.4,114.4z M82.4,190.4
				c-38.4,0-70-31.2-70-70s31.6-70,70-70c38.8,0,70,31.6,70,70C152.4,159.2,120.8,190.4,82.4,190.4z M334.4,390.4H191.2l34-40.4H300
				L334.4,390.4z M428.4,337.6H88.8v-31.2h339.6V337.6z M428.4,293.6H88.8v-90.8c40.4-3.2,72.8-35.6,76-76h263.6V293.6z"/>
			<path d="M234,327.6h58c3.6,0,6.4-2.8,6.4-6.4c-0.4-3.6-3.2-6.4-6.8-6.4H234c-3.6,0-6.4,2.8-6.4,6.4
				C227.6,324.8,230.4,327.6,234,327.6z"/>
			<path d="M132,242c-8,0-14.8,6.8-14.8,14.8s6.8,14.8,14.8,14.8s14.8-6.8,14.8-14.8c0-0.8,0-1.6-0.4-2.4l61.2-50l50.8,50
				c2.4,2.4,6,2.4,8.4,0.4l83.2-71.6v16c0,3.6,2.8,6.4,6.4,6.4c3.6,0,6.4-2.8,6.4-6.4v-29.6c0-0.8,0-1.2-0.4-2c0,0,0-0.4-0.4-0.4
				c-0.4-0.4-0.4-0.8-0.8-1.2l-0.4-0.4c-0.4-0.4-0.8-0.8-1.2-0.8s-0.4-0.4-0.8-0.4c-0.8-0.4-1.6-0.4-2-0.4h-30.4
				c-3.6,0-6.4,2.8-6.4,6.4s2.8,6.4,6.4,6.4H340l-77.2,64.4l-50.8-50c-2.4-2.4-6-2.4-8.4-0.4l-64,53.2
				C137.2,242.8,134.8,242,132,242z"/>
		</g>
	</g>
</g>
<g>
</g>
<g>
</g>
<g>
</g>
<g>
</g>
<g>
</g>
<g>
</g>
<g>
</g>
<g>
</g>
<g>
</g>
<g>
</g>
<g>
</g>
<g>
</g>
<g>
</g>
<g>
</g>
<g>
</g>
</svg>
