<?xml version="1.0" encoding="utf-8"?>
<!-- Generator: Adobe Illustrator 16.0.0, SVG Export Plug-In . SVG Version: 6.00 Build 0)  -->
<!DOCTYPE svg PUBLIC "-//W3C//DTD SVG 1.1//EN" "http://www.w3.org/Graphics/SVG/1.1/DTD/svg11.dtd">
<svg version="1.1" id="Layer_1" xmlns="http://www.w3.org/2000/svg" xmlns:xlink="http://www.w3.org/1999/xlink" x="0px" y="0px"
	 width="56.69px" height="56.69px" viewBox="0 0 56.69 56.69" enable-background="new 0 0 56.69 56.69" xml:space="preserve">
<g>
	<path d="M27.618,20.957c-1.712-2.692-4.844-4.048-7.979-3.452c-0.963,0.184-1.875,0.545-2.709,1.074
		c-1.745,1.111-2.953,2.836-3.402,4.854c-0.447,2.02-0.084,4.092,1.027,5.837c1.712,2.692,4.844,4.048,7.978,3.453
		c0.965-0.184,1.876-0.546,2.712-1.078C28.845,29.353,29.911,24.558,27.618,20.957z M24.171,29.958
		c-0.621,0.395-1.297,0.664-2.012,0.799c-2.323,0.441-4.646-0.562-5.917-2.561c-0.822-1.295-1.095-2.832-0.761-4.33
		c0.332-1.496,1.229-2.775,2.523-3.6c0.619-0.393,1.295-0.662,2.008-0.797c2.325-0.441,4.646,0.564,5.92,2.561
		C27.632,24.702,26.843,28.257,24.171,29.958z M34.115,38.837c0.101-0.45,0.018-0.912-0.229-1.299l-1.676-2.635
		c0.758-0.846,1.412-1.779,1.959-2.787l2.993,0.664c0.909,0.205,1.859-0.408,2.056-1.311l0.987-4.434
		c0.207-0.928-0.38-1.852-1.31-2.061l-2.938-0.652c-0.057-1.207-0.262-2.396-0.61-3.547l2.526-1.607
		c0.389-0.247,0.658-0.631,0.758-1.08c0.102-0.45,0.02-0.913-0.228-1.303l-2.44-3.834c-0.499-0.783-1.588-1.033-2.383-0.529
		l-2.525,1.607c-0.861-0.771-1.812-1.437-2.836-1.988l0.66-2.973c0.101-0.449,0.02-0.912-0.227-1.301
		c-0.247-0.39-0.632-0.66-1.083-0.76l-4.434-0.986c-0.903-0.202-1.858,0.404-2.062,1.311l-0.656,2.953
		c-1.185,0.062-2.354,0.264-3.488,0.605l-1.68-2.638c-0.504-0.784-1.593-1.026-2.381-0.528l-3.835,2.44
		c-0.389,0.247-0.659,0.632-0.759,1.083c-0.1,0.45-0.016,0.912,0.23,1.299l1.678,2.636c-0.804,0.896-1.492,1.886-2.055,2.954
		l-3.116-0.691c-0.903-0.203-1.856,0.403-2.06,1.311l-0.985,4.436c-0.206,0.928,0.382,1.85,1.31,2.059l3.172,0.705
		c0.067,1.145,0.268,2.268,0.595,3.355L4.3,31.058c-0.389,0.248-0.658,0.631-0.758,1.082s-0.02,0.912,0.229,1.301l2.441,3.836
		c0.499,0.782,1.592,1.029,2.38,0.525l2.745-1.746c0.879,0.787,1.854,1.467,2.906,2.027l-0.695,3.132
		c-0.102,0.45-0.02,0.911,0.227,1.301c0.249,0.39,0.633,0.658,1.083,0.759l4.437,0.986c0.908,0.201,1.859-0.408,2.058-1.311
		l0.701-3.156c1.161-0.064,2.308-0.268,3.411-0.6l1.678,2.641c0.384,0.598,1.081,0.896,1.777,0.766
		c0.216-0.041,0.419-0.122,0.604-0.24l3.833-2.439C33.745,39.673,34.015,39.288,34.115,38.837z M32.052,38.38l-3.371,2.146
		L26.3,36.785l-0.754,0.274c-1.363,0.498-2.829,0.755-4.304,0.759l-0.801,0.001l-0.982,4.43L15.56,41.38l0.98-4.411l-0.73-0.339
		c-1.369-0.637-2.596-1.492-3.644-2.543l-0.567-0.568l-3.85,2.449l-2.144-3.369l3.849-2.45l-0.273-0.755
		c-0.493-1.355-0.748-2.787-0.758-4.252l-0.006-0.797L3.98,23.358l0.866-3.9l4.404,0.978l0.338-0.733
		c0.633-1.381,1.496-2.622,2.564-3.69l0.566-0.567l-2.379-3.739l3.373-2.144l2.377,3.738l0.756-0.273
		c1.389-0.506,2.881-0.764,4.377-0.76l0.805,0.002l0.939-4.234l3.9,0.867l-0.942,4.249l0.725,0.34
		c1.339,0.63,2.541,1.474,3.576,2.509l0.568,0.568l3.63-2.311l2.146,3.371l-3.632,2.311l0.274,0.756
		c0.517,1.416,0.772,2.906,0.761,4.428l-0.005,0.809l4.225,0.938l-0.867,3.899l-4.259-0.946l-0.342,0.72
		c-0.628,1.324-1.463,2.513-2.484,3.533l-0.568,0.566L32.052,38.38z"/>
	<path d="M55.434,35.892c-0.203-0.631-0.85-1.014-1.502-0.89l-1.438,0.455c-0.271-0.378-0.573-0.731-0.906-1.06l0.623-1.223
		c0.161-0.312,0.189-0.67,0.08-1.004c-0.106-0.336-0.341-0.609-0.654-0.77l-2.201-1.124c-0.623-0.316-1.45-0.05-1.771,0.577
		l-0.617,1.21c-0.475-0.081-0.954-0.119-1.433-0.116l-0.438-1.346c-0.206-0.629-0.851-1.01-1.499-0.887l-2.501,0.801
		c-0.338,0.107-0.612,0.338-0.773,0.653c-0.162,0.315-0.191,0.675-0.082,1.009l0.437,1.345c-0.397,0.285-0.771,0.606-1.113,0.958
		l-1.293-0.659c-0.627-0.318-1.456-0.046-1.771,0.577l-1.123,2.199c-0.16,0.314-0.188,0.673-0.078,1.008
		c0.11,0.336,0.343,0.608,0.656,0.768l1.319,0.672c-0.073,0.451-0.108,0.905-0.105,1.359l-1.411,0.458
		c-0.335,0.108-0.607,0.342-0.769,0.655c-0.16,0.314-0.188,0.671-0.08,1.005l0.762,2.343c0.202,0.635,0.847,1.019,1.502,0.895
		l1.571-0.499c0.279,0.39,0.592,0.754,0.937,1.092l-0.661,1.294c-0.161,0.312-0.191,0.67-0.083,1.008
		c0.109,0.337,0.343,0.611,0.656,0.769l2.196,1.12c0.624,0.323,1.458,0.052,1.776-0.574l0.668-1.311
		c0.462,0.076,0.926,0.113,1.392,0.111l0.436,1.342c0.203,0.632,0.849,1.015,1.5,0.891l2.509-0.805
		c0.335-0.108,0.608-0.341,0.77-0.655c0.159-0.314,0.188-0.673,0.078-1.005l-0.438-1.344c0.37-0.266,0.718-0.562,1.04-0.885
		l1.228,0.627c0.627,0.318,1.454,0.053,1.776-0.574l1.124-2.203c0.325-0.647,0.066-1.441-0.578-1.771l-1.202-0.612
		c0.084-0.484,0.125-0.974,0.121-1.463l1.279-0.415c0.334-0.108,0.607-0.341,0.768-0.655c0.159-0.314,0.188-0.671,0.079-1.006
		L55.434,35.892z M46.438,42.987c-1.443,0.48-2.989-0.34-3.449-1.761c-0.467-1.437,0.323-2.985,1.76-3.45
		c0.112-0.038,0.225-0.066,0.339-0.088c1.348-0.256,2.686,0.537,3.111,1.848C48.664,40.971,47.873,42.519,46.438,42.987z"/>
</g>
</svg>
