<svg xmlns="http://www.w3.org/2000/svg" width="56.69" height="56.69"><path d="M50.692 39.181l-9.68-8.102c-.723-.605-1.414-.732-1.867-.732-1.244 0-2.504.953-2.504 2.773v7.492H11.994c-.01.002-1.498.029-2.447-.895-.566-.551-.854-1.373-.854-2.439v-11a1 1 0 1 0-2 0v11c0 1.639.498 2.947 1.479 3.891 1.42 1.367 3.377 1.443 3.781 1.443H36.641v7.512c0 1.82 1.26 2.773 2.504 2.773.453 0 1.145-.127 1.867-.732l9.68-8.1c.74-.619 1.164-1.508 1.164-2.441s-.423-1.824-1.164-2.443zM17.176 25.026c.723.605 1.414.732 1.867.732 1.246 0 2.504-.951 2.504-2.773v-7.492H46.2c.012.002 1.48-.029 2.43.885.574.553.865 1.377.865 2.451v11a1 1 0 0 0 2 0v-11c0-1.641-.496-2.949-1.479-3.893-1.57-1.512-3.797-1.453-3.855-1.443H21.547v-7.51c0-1.82-1.26-2.773-2.504-2.773-.453 0-1.145.127-1.867.732l-9.68 8.1c-.74.619-1.164 1.51-1.164 2.441s.424 1.822 1.164 2.443l9.68 8.1z"/></svg>