<?xml version="1.0" encoding="utf-8"?>
<!-- Generator: Adobe Illustrator 16.0.0, SVG Export Plug-In . SVG Version: 6.00 Build 0)  -->
<!DOCTYPE svg PUBLIC "-//W3C//DTD SVG 1.1//EN" "http://www.w3.org/Graphics/SVG/1.1/DTD/svg11.dtd">
<svg version="1.1" id="Layer_1" xmlns="http://www.w3.org/2000/svg" xmlns:xlink="http://www.w3.org/1999/xlink" x="0px" y="0px"
	 width="56.69px" height="56.69px" viewBox="0 0 56.69 56.69" enable-background="new 0 0 56.69 56.69" xml:space="preserve">
<g>
	<g>
		<path d="M51.956,7.377H5.009c-1.314,0-2.385,1.07-2.385,2.385v29.018c0,1.316,1.07,2.389,2.385,2.389H22.8v5.443h-5.223v2.219
			h21.811v-2.219h-5.221v-5.443h17.789c1.316,0,2.387-1.072,2.387-2.389V9.762C54.343,8.447,53.272,7.377,51.956,7.377z
			 M52.343,38.779c0,0.215-0.174,0.389-0.387,0.389H5.009c-0.213,0-0.385-0.174-0.385-0.389V9.762c0-0.213,0.172-0.385,0.385-0.385
			h46.947c0.213,0,0.387,0.172,0.387,0.385V38.779z"/>
		<g>
			<path d="M30.74,16.307c0,1.178-0.896,2.131-2.299,2.131c-1.345,0-2.242-0.953-2.214-2.131c-0.028-1.232,0.869-2.158,2.243-2.158
				C29.844,14.148,30.712,15.074,30.74,16.307z M26.339,33.828V20.12h4.262v13.708H26.339z"/>
		</g>
	</g>
	<rect x="25.046" y="41.229" fill="#FFFFFF" width="6.875" height="5.344"/>
</g>
</svg>
