<?xml version="1.0" encoding="iso-8859-1"?>
<!-- Generator: Adobe Illustrator 19.0.0, SVG Export Plug-In . SVG Version: 6.00 Build 0)  -->
<svg version="1.1" id="Capa_1" xmlns="http://www.w3.org/2000/svg" xmlns:xlink="http://www.w3.org/1999/xlink" x="0px" y="0px"
	 viewBox="0 0 512 512" style="enable-background:new 0 0 512 512;" xml:space="preserve">
<g>
	<g>
		<path d="M120.016,100c-66.168,0-120,53.832-120,120s53.832,120,120,120s120-53.832,120-120S186.184,100,120.016,100z M120.016,324
			c-57.344,0-104-46.656-104-104s46.656-104,104-104s104,46.656,104,104S177.36,324,120.016,324z"/>
	</g>
</g>
<g>
	<g>
		<path d="M232.016,252c-4.424,0-8,3.576-8,8c0,57.344-46.656,104-104,104s-104-46.656-104-104c0-4.424-3.576-8-8-8s-8,3.576-8,8
			c0,66.168,53.832,120,120,120s120-53.832,120-120C240.016,255.576,236.44,252,232.016,252z"/>
	</g>
</g>
<g>
	<g>
		<path d="M232,212c-4.424,0-8,3.576-8,8v40c0,4.424,3.576,8,8,8s8-3.576,8-8v-40C240,215.576,236.424,212,232,212z"/>
	</g>
</g>
<g>
	<g>
		<path d="M8,212c-4.424,0-8,3.576-8,8v40c0,4.424,3.576,8,8,8s8-3.576,8-8v-40C16,215.576,12.424,212,8,212z"/>
	</g>
</g>
<g>
	<g>
		<path d="M120.016,324c-4.424,0-8,3.576-8,8v40c0,4.424,3.576,8,8,8s8-3.576,8-8v-40C128.016,327.576,124.44,324,120.016,324z"/>
	</g>
</g>
<g>
	<g>
		<path d="M55.872,303.832c-4.424,0-8,3.576-8,8v40c0,4.424,3.576,8,8,8s8-3.584,8-8v-40
			C63.872,307.408,60.296,303.832,55.872,303.832z"/>
	</g>
</g>
<g>
	<g>
		<path d="M183.872,303.832c-4.424,0-8,3.576-8,8v40c0,4.424,3.576,8,8,8s8-3.584,8-8v-40
			C191.872,307.408,188.296,303.832,183.872,303.832z"/>
	</g>
</g>
<g>
	<g>
		<path d="M88.144,156c-4.424,0-8,3.576-8,8v112c0,4.424,3.576,8,8,8c4.416,0,8-3.576,8-8V164C96.144,159.576,92.568,156,88.144,156
			z"/>
	</g>
</g>
<g>
	<g>
		<path d="M128.144,156c-4.424,0-8,3.576-8,8s3.576,8,8,8c8.824,0,16,7.176,16,16c0,8.824-7.176,16-16,16c-4.424,0-8,3.576-8,8
			s3.576,8,8,8c17.648,0,32-14.352,32-32S145.792,156,128.144,156z"/>
	</g>
</g>
<g>
	<g>
		<path d="M128.144,204c-4.424,0-8,3.576-8,8s3.576,8,8,8c13.232,0,24,10.768,24,24s-10.768,24-24,24c-4.424,0-8,3.576-8,8
			s3.576,8,8,8c22.048,0,40-17.944,40-40C168.144,221.944,150.2,204,128.144,204z"/>
	</g>
</g>
<g>
	<g>
		<path d="M128.144,156h-48c-4.424,0-8,3.576-8,8s3.576,8,8,8h48c4.416,0,8-3.576,8-8S132.568,156,128.144,156z"/>
	</g>
</g>
<g>
	<g>
		<path d="M128.144,204h-40c-4.424,0-8,3.576-8,8s3.576,8,8,8h40c4.416,0,8-3.576,8-8S132.568,204,128.144,204z"/>
	</g>
</g>
<g>
	<g>
		<path d="M132.144,268h-52c-4.424,0-8,3.576-8,8s3.576,8,8,8h52c4.416,0,8-3.576,8-8S136.568,268,132.144,268z"/>
	</g>
</g>
<g>
	<g>
		<path d="M96.144,148c-4.424,0-8,3.576-8,8v8c0,4.424,3.576,8,8,8c4.416,0,8-3.576,8-8v-8C104.144,151.576,100.568,148,96.144,148z
			"/>
	</g>
</g>
<g>
	<g>
		<path d="M120.144,148c-4.424,0-8,3.576-8,8v8c0,4.424,3.576,8,8,8c4.416,0,8-3.576,8-8v-8
			C128.144,151.576,124.568,148,120.144,148z"/>
	</g>
</g>
<g>
	<g>
		<path d="M96.144,268c-4.424,0-8,3.576-8,8v8c0,4.424,3.576,8,8,8c4.416,0,8-3.576,8-8v-8C104.144,271.576,100.568,268,96.144,268z
			"/>
	</g>
</g>
<g>
	<g>
		<path d="M120.144,268c-4.424,0-8,3.576-8,8v8c0,4.424,3.576,8,8,8c4.416,0,8-3.576,8-8v-8
			C128.144,271.576,124.568,268,120.144,268z"/>
	</g>
</g>
<g>
	<g>
		<path d="M392.144,388c-4.424,0-8,3.576-8,8v40c0,4.424,3.576,8,8,8c4.416,0,8-3.576,8-8v-40
			C400.144,391.576,396.568,388,392.144,388z"/>
	</g>
</g>
<g>
	<g>
		<path d="M328,388c-4.424,0-8,3.576-8,8v40c0,4.424,3.576,8,8,8s8-3.576,8-8v-40C336,391.576,332.424,388,328,388z"/>
	</g>
</g>
<g>
	<g>
		<path d="M456,388c-4.424,0-8,3.576-8,8v40c0,4.424,3.576,8,8,8s8-3.576,8-8v-40C464,391.576,460.424,388,456,388z"/>
	</g>
</g>
<g>
	<g>
		<path d="M504,388H280c-4.424,0-8,3.576-8,8v40c0,4.424,3.576,8,8,8h224c4.424,0,8-3.576,8-8v-40C512,391.576,508.424,388,504,388z
			 M496,428H288v-24h208V428z"/>
	</g>
</g>
<g>
	<g>
		<path d="M120.144,388c-4.424,0-8,3.576-8,8v40c0,4.424,3.576,8,8,8c4.416,0,8-3.576,8-8v-40
			C128.144,391.576,124.568,388,120.144,388z"/>
	</g>
</g>
<g>
	<g>
		<path d="M56,388c-4.424,0-8,3.576-8,8v40c0,4.424,3.576,8,8,8s8-3.576,8-8v-40C64,391.576,60.424,388,56,388z"/>
	</g>
</g>
<g>
	<g>
		<path d="M184,388c-4.424,0-8,3.576-8,8v40c0,4.424,3.576,8,8,8s8-3.576,8-8v-40C192,391.576,188.424,388,184,388z"/>
	</g>
</g>
<g>
	<g>
		<path d="M232,388H8c-4.424,0-8,3.576-8,8v40c0,4.424,3.576,8,8,8h224c4.424,0,8-3.576,8-8v-40C240,391.576,236.424,388,232,388z
			 M224,428H16v-24h208V428z"/>
	</g>
</g>
<g>
	<g>
		<path d="M392.144,324c-4.424,0-8,3.576-8,8v40c0,4.424,3.576,8,8,8c4.416,0,8-3.576,8-8v-40
			C400.144,327.576,396.568,324,392.144,324z"/>
	</g>
</g>
<g>
	<g>
		<path d="M328,324c-4.424,0-8,3.576-8,8v40c0,4.424,3.576,8,8,8s8-3.576,8-8v-40C336,327.576,332.424,324,328,324z"/>
	</g>
</g>
<g>
	<g>
		<path d="M456,324c-4.424,0-8,3.576-8,8v40c0,4.424,3.576,8,8,8s8-3.576,8-8v-40C464,327.576,460.424,324,456,324z"/>
	</g>
</g>
<g>
	<g>
		<path d="M504,324H280c-4.424,0-8,3.576-8,8v40c0,4.424,3.576,8,8,8h224c4.424,0,8-3.576,8-8v-40C512,327.576,508.424,324,504,324z
			 M496,364H288v-24h208V364z"/>
	</g>
</g>
<g>
	<g>
		<path d="M392.144,260c-4.424,0-8,3.576-8,8v40c0,4.424,3.576,8,8,8c4.416,0,8-3.576,8-8v-40
			C400.144,263.576,396.568,260,392.144,260z"/>
	</g>
</g>
<g>
	<g>
		<path d="M328,260c-4.424,0-8,3.576-8,8v40c0,4.424,3.576,8,8,8s8-3.576,8-8v-40C336,263.576,332.424,260,328,260z"/>
	</g>
</g>
<g>
	<g>
		<path d="M456,260c-4.424,0-8,3.576-8,8v40c0,4.424,3.576,8,8,8s8-3.576,8-8v-40C464,263.576,460.424,260,456,260z"/>
	</g>
</g>
<g>
	<g>
		<path d="M504,260H280c-4.424,0-8,3.576-8,8v40c0,4.424,3.576,8,8,8h224c4.424,0,8-3.576,8-8v-40C512,263.576,508.424,260,504,260z
			 M496,300H288v-24h208V300z"/>
	</g>
</g>
<g>
	<g>
		<path d="M392.144,196c-4.424,0-8,3.576-8,8v40c0,4.424,3.576,8,8,8c4.416,0,8-3.576,8-8v-40
			C400.144,199.576,396.568,196,392.144,196z"/>
	</g>
</g>
<g>
	<g>
		<path d="M328,196c-4.424,0-8,3.576-8,8v40c0,4.424,3.576,8,8,8s8-3.576,8-8v-40C336,199.576,332.424,196,328,196z"/>
	</g>
</g>
<g>
	<g>
		<path d="M456,196c-4.424,0-8,3.576-8,8v40c0,4.424,3.576,8,8,8s8-3.576,8-8v-40C464,199.576,460.424,196,456,196z"/>
	</g>
</g>
<g>
	<g>
		<path d="M504,196H280c-4.424,0-8,3.576-8,8v40c0,4.424,3.576,8,8,8h224c4.424,0,8-3.576,8-8v-40C512,199.576,508.424,196,504,196z
			 M496,236H288v-24h208V236z"/>
	</g>
</g>
<g>
	<g>
		<path d="M392.144,132c-4.424,0-8,3.576-8,8v40c0,4.424,3.576,8,8,8c4.416,0,8-3.576,8-8v-40
			C400.144,135.576,396.568,132,392.144,132z"/>
	</g>
</g>
<g>
	<g>
		<path d="M328,132c-4.424,0-8,3.576-8,8v40c0,4.424,3.576,8,8,8s8-3.576,8-8v-40C336,135.576,332.424,132,328,132z"/>
	</g>
</g>
<g>
	<g>
		<path d="M456,132c-4.424,0-8,3.576-8,8v40c0,4.424,3.576,8,8,8s8-3.576,8-8v-40C464,135.576,460.424,132,456,132z"/>
	</g>
</g>
<g>
	<g>
		<path d="M504,132H280c-4.424,0-8,3.576-8,8v40c0,4.424,3.576,8,8,8h224c4.424,0,8-3.576,8-8v-40C512,135.576,508.424,132,504,132z
			 M496,172H288v-24h208V172z"/>
	</g>
</g>
<g>
	<g>
		<path d="M392.144,68c-4.424,0-8,3.576-8,8v40c0,4.424,3.576,8,8,8c4.416,0,8-3.576,8-8V76C400.144,71.576,396.568,68,392.144,68z"
			/>
	</g>
</g>
<g>
	<g>
		<path d="M328,68c-4.424,0-8,3.576-8,8v40c0,4.424,3.576,8,8,8s8-3.576,8-8V76C336,71.576,332.424,68,328,68z"/>
	</g>
</g>
<g>
	<g>
		<path d="M456,68c-4.424,0-8,3.576-8,8v40c0,4.424,3.576,8,8,8s8-3.576,8-8V76C464,71.576,460.424,68,456,68z"/>
	</g>
</g>
<g>
	<g>
		<path d="M504,68H280c-4.424,0-8,3.576-8,8v40c0,4.424,3.576,8,8,8h224c4.424,0,8-3.576,8-8V76C512,71.576,508.424,68,504,68z
			 M496,108H288V84h208V108z"/>
	</g>
</g>
<g>
</g>
<g>
</g>
<g>
</g>
<g>
</g>
<g>
</g>
<g>
</g>
<g>
</g>
<g>
</g>
<g>
</g>
<g>
</g>
<g>
</g>
<g>
</g>
<g>
</g>
<g>
</g>
<g>
</g>
</svg>
