<?xml version="1.0" encoding="utf-8"?>
<!-- Generator: Adobe Illustrator 16.0.0, SVG Export Plug-In . SVG Version: 6.00 Build 0)  -->
<!DOCTYPE svg PUBLIC "-//W3C//DTD SVG 1.1//EN" "http://www.w3.org/Graphics/SVG/1.1/DTD/svg11.dtd">
<svg version="1.1" id="Layer_1" xmlns="http://www.w3.org/2000/svg" xmlns:xlink="http://www.w3.org/1999/xlink" x="0px" y="0px"
	 width="56.69px" height="56.69px" viewBox="0 0 56.69 56.69" enable-background="new 0 0 56.69 56.69" xml:space="preserve">
<g>
	<path stroke="#000000" stroke-miterlimit="10" d="M50.379,4.523v47.414H26.464c-0.553,0-1-0.447-1-1s0.447-1,1-1h21.915V6.523
		H26.38c-0.553,0-1-0.448-1-1c0-0.553,0.447-1,1-1H50.379z"/>
	<g>
		<path d="M25.735,29.231H8.796c-0.553,0-1-0.447-1-1s0.447-1,1-1h16.939V19.73c0-1.219,0.779-1.773,1.504-1.773
			c0.287,0,0.732,0.088,1.225,0.499l9.679,8.099c0.516,0.429,0.809,1.039,0.809,1.676s-0.293,1.247-0.809,1.676l-9.679,8.103
			c-0.492,0.41-0.938,0.496-1.225,0.496c-0.725,0-1.504-0.556-1.504-1.772V29.231z"/>
		<path d="M27.735,36l9.126-7.629c0.057-0.048,0.09-0.1,0.09-0.143s-0.033-0.095-0.09-0.143l-9.118-7.628L27.735,36z"/>
	</g>
</g>
</svg>
