<?xml version="1.0" encoding="utf-8"?>
<!-- Generator: Adobe Illustrator 16.0.0, SVG Export Plug-In . SVG Version: 6.00 Build 0)  -->
<!DOCTYPE svg PUBLIC "-//W3C//DTD SVG 1.1//EN" "http://www.w3.org/Graphics/SVG/1.1/DTD/svg11.dtd">
<svg version="1.1" id="Layer_1" xmlns="http://www.w3.org/2000/svg" xmlns:xlink="http://www.w3.org/1999/xlink" x="0px" y="0px"
	 width="56.69px" height="56.69px" viewBox="0 0 56.69 56.69" enable-background="new 0 0 56.69 56.69" xml:space="preserve">
<g>
	<g>
		<circle fill="#FFFFFF" cx="29.094" cy="16.883" r="8.977"/>
		<path d="M29.094,27.107c-5.639,0-10.227-4.587-10.227-10.225c0-5.639,4.587-10.227,10.227-10.227
			c5.639,0,10.227,4.587,10.227,10.227C39.32,22.521,34.732,27.107,29.094,27.107z M29.094,9.156c-4.26,0-7.727,3.466-7.727,7.727
			c0,4.259,3.466,7.725,7.727,7.725c4.261,0,7.727-3.465,7.727-7.725C36.82,12.623,33.354,9.156,29.094,9.156z"/>
	</g>
	<g>
		<path d="M46.652,47.25H11.535c0,0,2.431-17.558,17.559-17.558S46.652,47.25,46.652,47.25z"/>
	</g>
	<g>
		<rect x="3.234" y="45.75" width="51.719" height="3"/>
	</g>
</g>
</svg>
